<svg xmlns="http://www.w3.org/2000/svg" viewBox="42 72 556 484" role="img" aria-labelledby="logoTitle logoDesc">
  <title id="logoTitle">CPA-DMV logo</title>
  <desc id="logoDesc">Stylized DMV mountain and growth bars with Certified Public Accountant text.</desc>
  <rect width="640" height="640" fill="#ffffff"/>
  <path d="M58 354 C176 331 317 323 580 354" fill="none" stroke="#082b5c" stroke-width="10" stroke-linecap="round"/>
  <path d="M76 340 L244 128 L322 226 L412 92 L592 340 L536 320 L414 156 L322 270 L246 176 L126 304 L224 294 L224 318 Z" fill="#ffffff"/>
  <path d="M76 340 L244 128 L322 226" fill="none" stroke="#72bd35" stroke-width="26" stroke-linejoin="miter"/>
  <path d="M322 226 L412 92 L592 340" fill="none" stroke="#0b4f93" stroke-width="26" stroke-linejoin="miter"/>
  <path d="M154 284 L246 176 L320 260" fill="none" stroke="#0b4f93" stroke-width="28" stroke-linejoin="miter"/>
  <path d="M318 260 L414 156 L536 318" fill="none" stroke="#18a9e6" stroke-width="28" stroke-linejoin="miter"/>
  <rect x="238" y="282" width="32" height="52" fill="#72bd35"/>
  <rect x="290" y="260" width="32" height="76" fill="#1fb8ad"/>
  <rect x="342" y="232" width="32" height="104" fill="#18a9e6"/>
  <rect x="394" y="210" width="32" height="128" fill="#082b5c"/>
  <text x="86" y="462" font-family="Arial, Helvetica, sans-serif" font-size="108" font-weight="700" fill="#72bd35">D</text>
  <text x="242" y="462" font-family="Arial, Helvetica, sans-serif" font-size="108" font-weight="700" fill="#18a9e6">M</text>
  <text x="432" y="462" font-family="Arial, Helvetica, sans-serif" font-size="108" font-weight="700" fill="#082b5c">V</text>
  <line x1="66" y1="520" x2="118" y2="520" stroke="#72bd35" stroke-width="5"/>
  <text x="132" y="530" font-family="Arial, Helvetica, sans-serif" font-size="22" font-weight="700" fill="#082b5c" letter-spacing="0">CERTIFIED PUBLIC ACCOUNTANT</text>
  <line x1="548" y1="520" x2="600" y2="520" stroke="#18a9e6" stroke-width="5"/>
</svg>
